<?xml version="1.0" encoding="iso-8859-1"?>
<!-- Generator: Adobe Illustrator 19.0.0, SVG Export Plug-In . SVG Version: 6.00 Build 0)  -->
<svg version="1.1" id="Capa_1" xmlns="http://www.w3.org/2000/svg" xmlns:xlink="http://www.w3.org/1999/xlink" x="0px" y="0px"
	 viewBox="0 0 512 512" style="enable-background:new 0 0 512 512;" xml:space="preserve">
<g>
	<g>
		<g transform="matrix(1.25 0 0 -1.25 0 45)">
			<path style="fill:#DA0001;" d="M0-271.2c0-25.134,20.378-45.511,45.511-45.511h318.578c25.134,0,45.511,20.378,45.511,45.511
				v45.511H0V-271.2z"/>
			<path style="fill:#EEEEEE;" d="M0-225.689h409.6v113.778H0V-225.689z"/>
			<path style="fill:#239F40;" d="M409.6-111.911V-66.4c0,25.134-20.378,45.511-45.511,45.511H45.511C20.378-20.889,0-41.266,0-66.4
				v-45.511H409.6z"/>
			<g>
				<g style="opacity:0.4;">
					<path style="fill:#FFFFFF;" d="M409.6-237.067H0v11.378h409.6V-237.067z"/>
				</g>
				<g>
					<path style="fill:#BE1931;" d="M221.468-134.325c10.889-5.575,34.566-33.599,9.079-65.206
						C246.374-196.027,266.524-149.378,221.468-134.325"/>
					<path style="fill:#BE1931;" d="M188.052-134.325c-10.877-5.575-34.566-33.599-9.079-65.206
						C163.146-196.027,143.007-149.378,188.052-134.325"/>
					<path style="fill:#BE1931;" d="M232.71-206.46c-8.624-0.137-19.502,1.195-27.568,5.382c1.331-2.583,2.435-4.21,3.766-6.793
						C216.61-208.577,227.214-209.464,232.71-206.46"/>
					<path style="fill:#BE1931;" d="M177.584-206.46c8.624-0.137,19.49,1.195,27.557,5.382c-1.32-2.583-2.435-4.21-3.755-6.793
						C193.695-208.577,183.08-209.464,177.584-206.46"/>
					<path style="fill:#BE1931;" d="M193.411-125.94c1.752-4.642,6.337-5.325,11.241-2.583c3.573-2.15,9.102-2.287,11.014,2.355
						c1.445-11.469-10.627-8.761-11.082-6.519C200.09-137.033,191.727-134.519,193.411-125.94"/>
					<path style="fill:#BE1931;" d="M233.677-167.662c-0.171,14.199-7.703,26.761-15.121,31.846
						c4.892-5.996,19.934-39.094-8.932-60.882l0.535,57.993l-5.404,4.756l-5.404-4.54l0.91-58.539
						c-0.08,0.068-0.125,0.114-0.205,0.171c-29.161,21.777-14.04,55.023-9.125,61.042c-7.43-5.086-14.962-17.647-15.121-31.846
						c-0.159-13.153,6.19-27.682,24.599-39.06l0.034-1.957l4.528-4.961l4.54,5.177l0.011,2.037
						C227.59-195.094,233.836-180.701,233.677-167.662"/>
				</g>
				<g style="opacity:0.4;">
					<path style="fill:#FFFFFF;" d="M409.6-111.911H0v11.378h409.6V-111.911z"/>
				</g>
			</g>
		</g>
	</g>
</g>
<g>
</g>
<g>
</g>
<g>
</g>
<g>
</g>
<g>
</g>
<g>
</g>
<g>
</g>
<g>
</g>
<g>
</g>
<g>
</g>
<g>
</g>
<g>
</g>
<g>
</g>
<g>
</g>
<g>
</g>
</svg>
